# xmcd
#
# Track frame offsets:
# 150
# 16285
# 32967
# 49765
# 61422
# 78675
# 93485
# 109370
# 127345
# 142977
#
# Disc length: 2117 seconds
#
#
# Revision: 2
# Processed by: cddbd v1.5.2PL0 Copyright (c) Steve Scherf et al.
# Submitted via: FreeRIP 2.96 
#
DISCID=9008430a
DTITLE=Arsenal - Armored Choir
DYEAR=1990
DGENRE=Christian Metal
TTITLE0=Turn Around
TTITLE1=Someone Believes In You
TTITLE2=Armored Choir
TTITLE3=Coming Back To You
TTITLE4=Forever Yours
TTITLE5=The Valley
TTITLE6=You're No Good For Me
TTITLE7=Bishop Of Souls
TTITLE8=Take It Away
TTITLE9=The Candle...The Flame
EXTD=Regency Records
EXTT0=
EXTT1=
EXTT2=
EXTT3=
EXTT4=
EXTT5=
EXTT6=
EXTT7=
EXTT8=
EXTT9=
PLAYORDER=
